<?xml version="1.0" encoding="UTF-8" standalone="no"?>
<!DOCTYPE svg PUBLIC "-//W3C//DTD SVG 1.1//EN" "http://www.w3.org/Graphics/SVG/1.1/DTD/svg11.dtd">
<svg xmlns:dc="http://purl.org/dc/elements/1.1/" version="1.1" xmlns="http://www.w3.org/2000/svg" xmlns:xl="http://www.w3.org/1999/xlink" viewBox="0 0 338.32546 338.32546" width="45" height="45">
  <defs/>
  <metadata> Produced by OmniGraffle 7.10.1
    <dc:date>2019-08-10 23:02:54 +0000</dc:date>
  </metadata>
  <g id="Canvas_1" fill="none" stroke-opacity="1" fill-opacity="1" stroke="none" stroke-dasharray="none">
    <title>Canvas 1</title>
    <g id="Canvas_1: Layer 1">
      <title>Layer 1</title>
      <g id="Graphic_13">
        <circle cx="169.16274" cy="169.16274" r="177.16301808867" fill="white"/>
      </g>
      <g id="Graphic_2"/>
      <g id="Group_3">
        <g id="Graphic_10">
          <rect x="-8" y="-8" width="354.32547" height="354.32547" fill="black" fill-opacity="0"/>
        </g>
        <g id="Graphic_9">
          <path d="M 13.191601 168.6903 C 13.191601 82.812185 82.80957 13.19423 168.68766 13.19423 C 209.92777 13.19423 249.4788 29.576804 278.63998 58.73797 C 307.80114 87.89914 324.1837 127.45018 324.1837 168.6903 C 324.1837 254.5684 254.56576 324.18635 168.68766 324.18635 C 82.80956 324.18635 13.191601 254.5684 13.191601 168.6903 Z" fill="black" fill-opacity="0"/>
        </g>
        <g id="Graphic_8">
          <path d="M 13.191601 168.6903 C 13.191601 82.812185 82.80957 13.19423 168.68766 13.19423 C 209.92777 13.19423 249.4788 29.576804 278.63998 58.73797 C 307.80114 87.89914 324.1837 127.45018 324.1837 168.6903 C 324.1837 254.5684 254.56576 324.18635 168.68766 324.18635 C 82.80956 324.18635 13.191601 254.5684 13.191601 168.6903 Z" stroke="#4a86e8" stroke-linecap="butt" stroke-linejoin="round" stroke-width="24"/>
        </g>
        <g id="Graphic_7">
          <path d="M 19.790026 168.6903 C 19.790026 86.45639 86.45377 19.79265 168.68767 19.79265 C 208.17778 19.79265 246.05048 35.480034 273.97418 63.40376 C 301.8979 91.32748 317.5853 129.20018 317.5853 168.69029 C 317.5853 250.92418 250.92156 317.5879 168.68766 317.5879 C 86.45376 317.5879 19.790025 250.92418 19.790025 168.69029 Z" fill="black" fill-opacity="0"/>
        </g>
        <g id="Graphic_6">
          <path d="M 19.790026 168.6903 C 19.790026 86.45639 86.45377 19.79265 168.68767 19.79265 C 208.17778 19.79265 246.05048 35.480034 273.97418 63.40376 C 301.8979 91.32748 317.5853 129.20018 317.5853 168.69029 C 317.5853 250.92418 250.92156 317.5879 168.68766 317.5879 C 86.45376 317.5879 19.790025 250.92418 19.790025 168.69029 Z" stroke="white" stroke-linecap="butt" stroke-linejoin="round" stroke-width="3"/>
        </g>
        <g id="Graphic_5">
          <rect x="73.50656" y="109.33858" width="181.88977" height="112.40945" fill="black" fill-opacity="0"/>
        </g>
        <g id="Graphic_4">
          <path d="M 115.1741 136.81046 C 120.95535 136.81046 126.01785 138.4615 130.3616 141.76358 C 134.71577 145.05525 137.30952 149.56567 138.14285 155.29483 L 132.72098 155.29483 C 131.64806 150.88858 129.51785 147.48233 126.33035 145.07608 C 123.14285 142.66983 119.41368 141.46671 115.14285 141.46671 C 108.52827 141.46671 103.29389 143.81567 99.43973 148.51358 C 95.58556 153.2115 93.65848 159.23234 93.65848 166.57608 C 93.65848 173.79484 95.55952 179.78963 99.3616 184.56046 C 103.16368 189.32088 108.4241 191.70108 115.14285 191.70108 C 120.09077 191.70108 124.23139 190.0292 127.56473 186.68546 C 130.89806 183.3313 132.87723 178.90942 133.50223 173.41983 L 138.9241 173.41983 C 138.12202 180.57608 135.59598 186.19067 131.34598 190.26358 C 127.10639 194.32608 121.71577 196.35734 115.1741 196.35734 C 106.9241 196.35734 100.36681 193.55525 95.50223 187.95108 C 90.64806 182.34692 88.22098 175.22192 88.22098 166.57608 C 88.22098 157.85734 90.6741 150.71671 95.58035 145.15421 C 100.49702 139.59171 107.02827 136.81046 115.1741 136.81046 Z M 152.12723 138.02921 L 152.12723 173.76358 C 152.12723 179.59692 153.4814 184.04484 156.18973 187.10734 C 158.89806 190.16984 163.1168 191.70108 168.84598 191.70108 C 174.6064 191.70108 178.84598 190.19067 181.56472 187.16983 C 184.28348 184.149 185.64285 179.68025 185.64285 173.76358 L 185.64285 138.02921 L 191.1116 138.02921 L 191.1116 174.93546 C 191.1116 181.23754 189.22098 186.38338 185.43973 190.37296 C 181.6689 194.36254 176.13764 196.35734 168.84598 196.35734 C 164.39806 196.35734 160.49702 195.524 157.14285 193.85734 C 153.7991 192.18025 151.22098 189.66463 149.40848 186.31046 C 147.6064 182.94588 146.70535 179.1542 146.70535 174.93546 L 146.70535 138.02921 Z M 241.51004 138.02921 L 241.51004 142.66983 L 207.52566 142.66983 L 207.52566 163.29483 L 239.35379 163.29483 L 239.35379 167.95108 L 207.52566 167.95108 L 207.52566 190.48234 L 241.90066 190.48234 L 241.90066 195.13858 L 202.0569 195.13858 L 202.0569 138.02921 Z" fill="#4a86e8"/>
        </g>
      </g>
    </g>
  </g>
</svg>
