<svg width="45px" height="45px" xmlns="http://www.w3.org/2000/svg" xmlns:xlink="http://www.w3.org/1999/xlink">
<g style="">  <rect x="-1.065089" y="-1.065088" width="47.173509" height="47.173509" style="fill: rgba(0, 0, 0, 1.000000); stroke-width: 0.000000px; stroke: rgba(0, 0, 0, 1.000000); " fill="#000000" stroke="#000000" stroke-width="0.000000"  />
  <path d="M1.756278,22.458769 C1.756278,11.025292,11.024943,1.756631,22.458417,1.756631 C27.948963,1.756631,33.214633,3.937742,37.097038,7.820146 C40.979441,11.702550,43.160551,16.968221,43.160551,22.458770 C43.160551,33.892244,33.891890,43.160906,22.458417,43.160906 C11.024943,43.160906,1.756279,33.892244,1.756279,22.458770 Z " style="fill: rgba(0, 0, 0, 1.000000); stroke-width: 0.000000px; stroke: rgba(0, 0, 0, 1.000000); " fill="#000000" stroke="#000000" stroke-width="0.000000" />
  <path d="M1.756278,22.458769 C1.756278,11.025292,11.024943,1.756631,22.458417,1.756631 C27.948963,1.756631,33.214633,3.937742,37.097038,7.820146 C40.979441,11.702550,43.160551,16.968221,43.160551,22.458770 C43.160551,33.892244,33.891890,43.160906,22.458417,43.160906 C11.024943,43.160906,1.756279,33.892244,1.756279,22.458770 Z " stroke-linejoin="round" style="fill: rgba(0, 0, 0, 1.000000); stroke-width: 3.195266px; stroke: rgba(74, 134, 232, 1.000000); " fill="#000000" stroke="#4a86e8" stroke-width="3.195266" />
  <path d="M2.634767,22.458769 C2.634767,11.510467,11.510117,2.635118,22.458418,2.635118 C27.715977,2.635118,32.758200,4.723675,36.475852,8.441331 C40.193507,12.158986,42.282066,17.201209,42.282066,22.458768 C42.282066,33.407067,33.406716,42.282415,22.458415,42.282415 C11.510115,42.282415,2.634767,33.407068,2.634767,22.458768 Z " style="fill: rgba(0, 0, 0, 1.000000); stroke-width: 0.000000px; stroke: rgba(0, 0, 0, 1.000000); " fill="#000000" stroke="#000000" stroke-width="0.000000" />
  <path d="M2.634767,22.458769 C2.634767,11.510467,11.510117,2.635118,22.458418,2.635118 C27.715977,2.635118,32.758200,4.723675,36.475852,8.441331 C40.193507,12.158986,42.282066,17.201209,42.282066,22.458768 C42.282066,33.407067,33.406716,42.282415,22.458415,42.282415 C11.510115,42.282415,2.634767,33.407068,2.634767,22.458768 Z " stroke-linejoin="round" style="fill: rgba(0, 0, 0, 1.000000); stroke-width: 0.399408px; stroke: rgba(0, 0, 0, 1.000000); " fill="#000000" stroke="#000000" stroke-width="0.399408" />
  <rect x="9.786376" y="14.556911" width="24.216094" height="14.965755" style="fill: rgba(0, 0, 0, 1.000000); stroke-width: 0.000000px; stroke: rgba(0, 0, 0, 1.000000); " fill="#000000" stroke="#000000" stroke-width="0.000000"  />
  <path d="M15.333830,18.214410 C16.103523,18.214410,16.777525,18.434223,17.355835,18.873849 C17.935532,19.312089,18.280853,19.912589,18.391800,20.675347 L17.669953,20.675347 C17.527109,20.088716,17.243501,19.635221,16.819130,19.314862 C16.394758,18.994504,15.898271,18.834325,15.329670,18.834325 C14.449030,18.834325,13.752145,19.147056,13.239018,19.772518 C12.725888,20.397980,12.469325,21.199571,12.469325,22.177288 C12.469325,23.138366,12.722422,23.936489,13.228616,24.571659 C13.734810,25.205442,14.435161,25.522333,15.329670,25.522333 C15.988416,25.522333,16.539682,25.299745,16.983470,24.854573 C17.427257,24.408013,17.690756,23.819301,17.773966,23.088439 L18.495812,23.088439 C18.389027,24.041194,18.052719,24.788698,17.486891,25.330950 C16.922449,25.871815,16.204762,26.142249,15.333830,26.142249 C14.235457,26.142249,13.362445,25.769190,12.714794,25.023073 C12.068529,24.276957,11.745397,23.328362,11.745397,22.177289 C11.745397,21.016510,12.071996,20.065834,12.725195,19.325265 C13.379781,18.584695,14.249326,18.214410,15.333830,18.214410 Z M20.253625,18.376670 L20.253625,23.134204 C20.253625,23.910832,20.433914,24.503011,20.794490,24.910740 C21.155067,25.318469,21.716733,25.522333,22.479494,25.522333 C23.246414,25.522333,23.810855,25.321243,24.172817,24.919060 C24.534782,24.516878,24.715764,23.921926,24.715764,23.134204 L24.715764,18.376669 L25.443852,18.376669 L25.443852,23.290223 C25.443852,24.129258,25.192142,24.814355,24.688721,25.345512 C24.186687,25.876669,23.450277,26.142249,22.479494,26.142249 C21.887315,26.142249,21.367946,26.031301,20.921385,25.809409 C20.476211,25.586127,20.132970,25.251208,19.891661,24.804647 C19.651739,24.356699,19.531777,23.851890,19.531777,23.290223 L19.531777,18.376669 Z M32.153703,18.376670 L32.153703,18.994504 L27.629156,18.994504 L27.629156,21.740436 L31.866629,21.740436 L31.866629,22.360350 L27.629156,22.360350 L27.629156,25.360074 L32.205709,25.360074 L32.205709,25.979988 L26.901066,25.979988 L26.901066,18.376669 Z " style="fill: rgba(74, 134, 232, 1.000000); stroke-width: 0.000000px; stroke: rgba(0, 0, 0, 1.000000); " fill="#4a86e8" stroke="#000000" stroke-width="0.000000" />
</g></svg>